<svg width="32" height="32" viewBox="0 0 32 32" fill="none" xmlns="http://www.w3.org/2000/svg">
<circle cx="16" cy="16" r="16" fill="#F5DC53"/>
<path d="M19.901 20.3833C18.7344 20.3833 17.8177 20.1 17.151 19.5333C16.4955 18.9667 16.1677 18.2167 16.1677 17.2833C16.1677 16.3056 16.501 15.55 17.1677 15.0167C17.8455 14.4833 18.8177 14.2167 20.0844 14.2167H23.1344V13.8167C23.1344 12.5944 22.4233 11.9833 21.001 11.9833C19.801 11.9833 19.0733 12.4167 18.8177 13.2833H16.3344C16.5344 12.2167 17.0344 11.4056 17.8344 10.85C18.6455 10.2833 19.701 10 21.001 10C22.4677 10 23.5844 10.3333 24.351 11C25.1177 11.6556 25.501 12.6167 25.501 13.8833V17.7167H26.6844V20.2H24.1344V18.6H23.4344C23.0899 19.1667 22.6233 19.6056 22.0344 19.9167C21.4566 20.2278 20.7455 20.3833 19.901 20.3833ZM20.2677 18.4667C20.8122 18.4667 21.301 18.3667 21.7344 18.1667C22.1677 17.9556 22.5066 17.6778 22.751 17.3333C23.0066 16.9778 23.1344 16.5833 23.1344 16.15V15.9167H20.2177C19.0955 15.9167 18.5344 16.3333 18.5344 17.1667C18.5344 17.5778 18.6844 17.9 18.9844 18.1333C19.2955 18.3556 19.7233 18.4667 20.2677 18.4667Z" fill="#1D1D1B"/>
<path d="M6.23333 24.2V12.6833H5V10.2H7.55V11.8H8.25C8.59444 11.2222 9.06111 10.7778 9.65 10.4667C10.2389 10.1556 10.95 10 11.7833 10C12.8167 10 13.6833 10.2167 14.3833 10.65C15.0944 11.0722 15.6333 11.6722 16 12.45C16.3667 13.2278 16.55 14.1444 16.55 15.2C16.55 16.2556 16.3667 17.1722 16 17.95C15.6444 18.7278 15.1278 19.3333 14.45 19.7667C13.7722 20.1889 12.9556 20.4 12 20.4C11.2444 20.4 10.5944 20.2556 10.05 19.9667C9.50556 19.6778 9.08333 19.2722 8.78333 18.75H8.71667V24.2H6.23333ZM11.3333 18.25C12.2333 18.25 12.9111 17.9833 13.3667 17.45C13.8333 16.9056 14.0667 16.1556 14.0667 15.2C14.0667 14.2444 13.8333 13.5 13.3667 12.9667C12.9111 12.4222 12.2333 12.15 11.3333 12.15C10.5444 12.15 9.91111 12.3778 9.43333 12.8333C8.95556 13.2778 8.71667 13.8889 8.71667 14.6667V15.7333C8.71667 16.5111 8.95556 17.1278 9.43333 17.5833C9.91111 18.0278 10.5444 18.25 11.3333 18.25Z" fill="#1D1D1B"/>
</svg>
