<svg width="77" height="20" viewBox="0 0 77 20" fill="none" xmlns="http://www.w3.org/2000/svg">
<g clip-path="url(#clip0_1738_14518)">
<mask id="mask0_1738_14518" style="mask-type:luminance" maskUnits="userSpaceOnUse" x="0" y="0" width="77" height="20">
<path d="M76.1905 0H0V19.9092H76.1905V0Z" fill="white"/>
</mask>
<g mask="url(#mask0_1738_14518)">
<path d="M55.9176 19.1912V18.0969H57.6171V17.4386H55.9176V16.4209H58.0176V15.7626H55.1926V19.8506H58.0176V19.1923L55.9176 19.1912ZM49.8954 16.4338C49.9931 16.4284 50.0897 16.4425 50.1808 16.4759C50.272 16.5094 50.3556 16.5622 50.4272 16.6302C50.4977 16.6982 50.5542 16.7792 50.5932 16.8698C50.6323 16.9605 50.6518 17.0576 50.6518 17.1569C50.6518 17.2551 50.6323 17.3533 50.5932 17.444C50.5542 17.5346 50.4988 17.6166 50.4272 17.6835C50.3566 17.7515 50.2731 17.8033 50.1808 17.8379C50.0897 17.8713 49.992 17.8864 49.8954 17.88H48.8101V16.4327H49.8954V16.4338ZM48.0852 19.8506H48.8101V18.5448H49.8889C50.794 18.5448 51.3801 17.9976 51.3801 17.145C51.3801 16.3097 50.7886 15.7626 49.8889 15.7626H48.0841L48.0852 19.8506ZM40.6196 15.7626V18.2685C40.6196 19.2743 41.3391 19.91 42.3604 19.91C43.3816 19.91 44.1011 19.2743 44.1011 18.275V15.7636H43.3816V18.275C43.3816 18.8275 42.9985 19.2279 42.3604 19.2279C41.7342 19.2279 41.3456 18.8275 41.3456 18.2696V15.7636L40.6196 15.7626ZM34.7602 19.2268C34.3977 19.2128 34.0559 19.0563 33.8052 18.7919C33.5545 18.5275 33.4134 18.1746 33.4134 17.8066C33.4134 17.4396 33.5534 17.0867 33.8052 16.8213C34.0559 16.5568 34.3988 16.4004 34.7602 16.3863C35.5199 16.3863 36.1005 16.9691 36.1005 17.8098C36.1092 17.9933 36.0821 18.1767 36.018 18.3494C35.9551 18.5221 35.8574 18.6786 35.7315 18.8113C35.6056 18.9441 35.4548 19.0498 35.2876 19.121C35.1216 19.1923 34.9414 19.2279 34.7602 19.2268ZM34.7602 15.7032C34.35 15.7054 33.9506 15.8295 33.6109 16.0615C33.2712 16.2935 33.0064 16.6227 32.8512 17.0069C32.6949 17.3911 32.6559 17.813 32.7362 18.221C32.8165 18.6279 33.0151 19.0023 33.3048 19.2959C33.5946 19.5894 33.9647 19.7891 34.3662 19.87C34.7678 19.951 35.1845 19.9089 35.5633 19.7502C35.9421 19.5916 36.2655 19.3218 36.4934 18.9775C36.7213 18.6322 36.8428 18.2264 36.8439 17.8109C36.8504 17.5325 36.8005 17.2551 36.6974 16.9961C36.5954 16.7371 36.4413 16.5029 36.247 16.3054C36.0528 16.1079 35.8205 15.9536 35.5644 15.851C35.3083 15.7464 35.0348 15.6967 34.7602 15.7032ZM27.491 16.4338C27.9783 16.4338 28.2453 16.7274 28.2453 17.0986C28.2453 17.4871 27.9838 17.7807 27.491 17.7807H26.5219V16.4327H27.491V16.4338ZM25.798 19.8506H26.523V18.4509H27.3521L28.3788 19.8506H29.2372L28.0706 18.2922C28.3365 18.2231 28.5709 18.0645 28.7359 17.8422C28.9008 17.6199 28.9855 17.3468 28.9757 17.0695C28.9757 16.2752 28.3896 15.7636 27.4845 15.7636H25.7969L25.798 19.8506ZM21.9051 17.6328H20.1709V18.2383H21.2268V19.0498C20.9534 19.1793 20.6527 19.2408 20.351 19.2322C19.5219 19.2322 18.9065 18.7023 18.9065 17.8033C18.9011 17.6166 18.9326 17.431 18.9999 17.2573C19.0672 17.0835 19.1692 16.9259 19.2983 16.7932C19.4286 16.6605 19.5827 16.5558 19.7541 16.4867C19.9245 16.4166 20.1079 16.3831 20.2924 16.3874C20.5008 16.3809 20.7081 16.4176 20.9034 16.4943C21.0977 16.5709 21.2746 16.6864 21.4244 16.8342L21.8541 16.287C21.4276 15.8953 20.8687 15.687 20.2935 15.7043C19.0867 15.7043 18.1707 16.5925 18.1707 17.8044C18.1707 19.0811 19.0758 19.91 20.3521 19.91C20.9034 19.9153 21.445 19.7556 21.9062 19.4513L21.9051 17.6328Z" fill="black"/>
<path d="M41.4509 13.0355H51.2824V11.8182H43.1352V7.92117H49.254V6.68979H43.1352V3.10034H51.2813V1.88623H41.4498V13.0355H41.4509Z" fill="black"/>
<path d="M46.5604 0.0844727L45.2298 1.59968L49.4081 0.0844727H46.5604Z" fill="black"/>
<path d="M66.2516 1.88731V13.0345H76.1905V11.8171H67.7872V1.88623H66.2516V1.88731Z" fill="black"/>
<path d="M57.6529 1.88721L52.0627 13.0354H53.9522L55.3825 10.1496H62.0884L63.5308 13.0354H65.4018L59.805 1.88721H57.6529ZM56.0901 8.75205L58.7241 3.42724L61.3906 8.75205H56.0901Z" fill="black"/>
<path d="M36.1157 8.37423C38.6346 7.69325 38.8799 5.79168 38.8669 5.11286C38.7171 3.12172 37.3931 1.88818 35.0152 1.88818H28.0847V13.0353H29.6648V8.35804H34.1763L37.4951 13.0332H39.4866C39.4866 13.0332 37.099 9.8862 36.1157 8.37207V8.37423ZM34.7993 7.03925H29.6648V3.20698H34.9794C36.2014 3.20698 36.8906 3.78543 37.138 4.52145C37.2118 4.79125 37.2314 5.07401 37.1945 5.35244C37.1576 5.6298 37.0664 5.89745 36.9253 6.13919C36.4814 6.88384 35.6382 7.04249 34.7993 7.04249" fill="black"/>
<path d="M18.5365 12.5922C15.451 12.5922 12.9093 10.0787 12.9093 7.05047C12.9093 4.02545 15.3306 1.39218 18.6558 1.39218C19.3927 1.3857 20.1231 1.52816 20.8058 1.80983C21.4884 2.09151 22.1092 2.507 22.6323 3.03366C23.1554 3.55923 23.571 4.18517 23.8543 4.87479C24.1375 5.5644 24.283 6.30366 24.283 7.05047C24.2819 10.0777 21.6208 12.5922 18.5365 12.5922ZM18.5896 0C14.1302 0 11.0904 3.18798 11.0904 7.04616C11.0904 11.1083 14.4482 13.9758 18.5896 13.9758C22.731 13.9758 26.0856 11.1493 26.0856 7.04616C26.0856 3.18798 23.0078 0 18.5896 0Z" fill="black"/>
<path d="M7.11179 5.83063H8.25133L10.3209 1.88721H8.65614L7.11179 5.83063Z" fill="black"/>
<path d="M0 1.88731V13.0345H9.93784V11.8171H1.53783V1.88623H0V1.88731Z" fill="black"/>
</g>
</g>
<defs>
<clipPath id="clip0_1738_14518">
<rect width="77" height="20" fill="white"/>
</clipPath>
</defs>
</svg>
