<svg width="76" height="20" viewBox="0 0 76 20" fill="none" xmlns="http://www.w3.org/2000/svg">
<g clip-path="url(#clip0_1768_523)">
<path d="M76.1905 0V19.0476H0V0H76.1905Z" fill="black"/>
<path d="M73.2162 10.4899C73.2162 10.4899 73.2014 10.5218 73.1499 10.5218H69.0408C68.9745 10.5218 68.9426 10.5537 68.9426 10.5537C68.9426 10.5537 68.8934 10.5709 68.8934 10.6518V15.0312C68.8934 15.0974 68.8615 15.1121 68.8615 15.1121C68.8615 15.1121 68.8443 15.1464 68.7952 15.1464H65.5286C65.4819 15.1464 65.4475 15.1121 65.4475 15.1121C65.4475 15.1121 65.4304 15.0974 65.4304 15.0164V10.6346C65.4304 10.588 65.391 10.5537 65.391 10.5537C65.391 10.5537 65.3665 10.5218 65.3247 10.5218H61.1076C61.0266 10.5218 61.0118 10.5047 61.0118 10.5047C61.0118 10.5047 60.9799 10.4728 60.9799 10.3747V7.16985C60.9799 7.13062 61.0118 7.08893 61.0118 7.08893C61.0118 7.08893 61.0266 7.07422 61.061 7.07422H65.3665C65.4009 7.07422 65.4009 7.05706 65.4009 7.05706C65.4009 7.05706 65.4304 7.03989 65.4304 7.00801V3.17054C65.4304 3.12395 65.4475 3.08962 65.4475 3.08962C65.4475 3.08962 65.4819 3.07245 65.5777 3.07245H68.7805C68.8443 3.07245 68.8615 3.08962 68.8615 3.08962C68.8615 3.08962 68.8934 3.12395 68.8934 3.1877V7.03989H73.0786C73.1842 7.03989 73.2162 7.05706 73.2162 7.05706C73.2162 7.05706 73.2653 7.07422 73.2653 7.16985V10.409C73.2653 10.4409 73.2162 10.4899 73.2162 10.4899ZM60.4666 15.0017C60.4518 15.0974 60.4347 15.1292 60.4347 15.1292C60.4347 15.1292 60.4175 15.1636 60.3364 15.1636H53.7123C53.5207 15.1636 53.4692 15.1121 53.4692 15.1121C53.4692 15.1121 53.4372 15.0483 53.452 14.9037L55.0951 3.50401C55.1123 3.3667 55.1442 3.31766 55.1442 3.31766C55.1442 3.31766 55.1614 3.31766 55.3137 3.31766H58.3298C58.4108 3.31766 58.4354 3.33237 58.4354 3.33237C58.4354 3.33237 58.4526 3.38386 58.4354 3.44762L57.2 12.356C57.1828 12.4516 57.2319 12.4614 57.2319 12.4614C57.2319 12.4614 57.2638 12.4786 57.3965 12.4786H60.6704C60.7417 12.4786 60.7662 12.508 60.7662 12.508C60.7662 12.508 60.7834 12.5252 60.7834 12.6061L60.4666 15.0017ZM52.025 15.1783H49.0826C49.0187 15.2102 48.9672 15.1464 48.9672 15.1464C48.9672 15.1464 48.9524 15.1292 48.9352 15.0312L48.5447 13.2142C48.5128 13.1259 48.4808 13.0769 48.4808 13.0769C48.4808 13.0769 48.3998 13.0278 48.3015 13.0278H44.475C44.4013 13.0278 44.3521 13.0769 44.3521 13.0769C44.3521 13.0769 44.2883 13.1333 44.2539 13.2313L43.3844 15.0827C43.3697 15.1292 43.3378 15.1464 43.3378 15.1464C43.3378 15.1464 43.2715 15.1636 43.2395 15.1636H39.9238C39.8428 15.1783 39.8182 15.1292 39.8182 15.1292C39.8182 15.1292 39.8035 15.0974 39.8428 15.0312L45.6858 3.39858C45.7177 3.38387 45.7497 3.33237 45.7497 3.33237C45.7497 3.33237 45.784 3.31766 45.8798 3.31766H49.4977C49.5787 3.31766 49.6254 3.3667 49.6254 3.3667C49.6254 3.3667 49.6426 3.38387 49.6598 3.43046L52.0888 15.1121C52.0888 15.1464 52.0717 15.1636 52.0717 15.1636C52.0717 15.1636 52.0716 15.1783 52.025 15.1783ZM38.234 15.1636H35.2916C35.2425 15.1636 35.1958 15.1636 35.1958 15.1636C35.1958 15.1636 35.186 15.1464 35.1688 15.1292L31.0819 7.89321C31.0499 7.86133 31.0352 7.86133 31.0352 7.86133C31.0352 7.86133 31.0008 7.86133 31.0008 7.90792L29.9865 15.0164C29.9693 15.0974 29.9521 15.1121 29.9521 15.1121C29.9521 15.1121 29.9201 15.1292 29.871 15.1292H26.9458C26.8991 15.1292 26.8648 15.0974 26.8648 15.0974C26.8648 15.0974 26.8009 15.0312 26.8255 14.9674L28.4244 3.46478C28.4416 3.39858 28.476 3.38386 28.476 3.38386C28.476 3.38386 28.5226 3.33237 28.5717 3.33237H31.8384C31.8875 3.33237 31.9194 3.3667 31.9194 3.3667C31.9194 3.3667 31.9513 3.38387 31.9685 3.43046L35.6502 9.88183C35.7141 10.0093 35.7632 9.99463 35.7632 9.99463C35.7632 9.99463 35.8123 9.99462 35.8442 9.8475L36.7726 3.43046C36.7726 3.38387 36.8021 3.3667 36.8021 3.3667C36.8021 3.3667 36.8193 3.33237 36.8684 3.33237L39.9386 3.3667C40.0049 3.3667 40.0221 3.38386 40.0221 3.38386C40.0221 3.38386 40.0368 3.39858 40.0368 3.43046L38.3789 15.0312C38.3617 15.0974 38.3323 15.1464 38.3323 15.1464C38.3323 15.1464 38.3151 15.1636 38.234 15.1636ZM25.369 15.1292L22.5101 15.1464C22.4438 15.1464 22.3971 15.1121 22.3971 15.1121C22.3971 15.1121 22.3799 15.0974 22.3627 14.9846L21.9157 13.1333C21.9157 13.094 21.8863 13.0769 21.8863 13.0769C21.8863 13.0769 21.8691 13.0769 21.8347 13.0769H17.7969C17.7158 13.0769 17.6667 13.1333 17.6667 13.1333C17.6667 13.1333 17.6028 13.1823 17.5537 13.2951L16.7481 15.0164C16.7162 15.0827 16.699 15.0974 16.699 15.0974C16.699 15.0974 16.6523 15.1292 16.6106 15.1292H13.2801C13.1819 15.1464 13.1647 15.0974 13.1647 15.0974C13.1647 15.0974 13.1475 15.0483 13.1819 14.9846L18.9586 3.39858C18.9832 3.33237 19.0323 3.31766 19.0323 3.31766C19.0323 3.31766 19.0642 3.31766 19.1453 3.31766H22.8269C22.8933 3.31766 22.9399 3.3667 22.9399 3.3667C22.9399 3.3667 22.9571 3.38387 22.9743 3.43046L25.45 15.0483C25.45 15.0974 25.4206 15.1121 25.4206 15.1121C25.4206 15.1121 25.4034 15.1292 25.369 15.1292ZM47.1816 6.66963C47.1816 6.66963 47.1644 6.66963 47.1472 6.73338L45.5409 10.36C45.5065 10.4728 45.5237 10.4899 45.5237 10.4899C45.5237 10.4899 45.5704 10.5218 45.6048 10.5218L47.9847 10.5047C48.0019 10.5047 48.0166 10.5047 48.0166 10.5047C48.0166 10.5047 48.0338 10.4899 48.0166 10.4409L47.2135 6.71622C47.1988 6.66963 47.1816 6.66963 47.1816 6.66963ZM20.4863 6.71622C20.4863 6.71622 20.4715 6.71622 20.4544 6.75055L18.8456 10.3919C18.8137 10.4409 18.8284 10.4728 18.8284 10.4728C18.8284 10.4728 18.8456 10.4899 18.9267 10.4899L21.2894 10.5047C21.3066 10.5047 21.314 10.4899 21.314 10.4899C21.314 10.4899 21.3312 10.4728 21.314 10.4237L20.501 6.75055C20.501 6.71622 20.4863 6.71622 20.4863 6.71622ZM12.2485 14.7247C12.2314 14.8522 12.1675 14.9502 12.1675 14.9502C12.1675 14.9502 12.0987 15.0164 11.9956 15.0483C10.4433 15.6736 8.72651 15.4627 8.72651 15.4627C5.9413 15.1636 4.17782 13.4569 3.60801 11.2599C2.77048 7.96677 4.4308 5.62995 4.83605 5.12728C5.81112 3.95765 7.33882 3.12395 8.84195 2.92778C10.7528 2.66051 12.1675 3.10678 12.752 3.30295C12.752 3.30295 13.3931 3.50402 13.872 3.83014C14.1152 3.99198 14.1496 4.05573 14.1496 4.05573C14.1496 4.05573 14.1643 4.09006 14.098 4.34017L13.6461 6.69905C13.6289 6.79714 13.5699 6.84618 13.5699 6.84618C13.5699 6.84618 13.538 6.86334 13.3096 6.71622C11.8654 5.69371 10.1756 5.81631 10.1756 5.81631C8.89107 5.89723 7.38794 6.57154 6.94093 8.27328C6.54304 9.78375 6.95812 11.049 7.85705 11.8018C8.46862 12.3388 9.41912 12.6061 10.4188 12.5595C11.5068 12.4786 12.3763 12.047 12.3124 12.0789C12.3124 12.0789 12.3591 12.0617 12.4107 12.047C12.6366 11.9342 12.6857 11.9489 12.6857 11.9489C12.6857 11.9489 12.7349 11.998 12.7005 12.1451L12.2485 14.7247Z" fill="white"/>
</g>
<defs>
<clipPath id="clip0_1768_523">
<rect width="76" height="20" fill="white"/>
</clipPath>
</defs>
</svg>
