<svg width="32" height="20" viewBox="0 0 32 20" fill="none" xmlns="http://www.w3.org/2000/svg">
<g clip-path="url(#clip0_1738_14732)">
<path d="M25.3998 12.418H6.66779V14.0791H25.3998V12.418Z" fill="black"/>
<path d="M18.5697 3.38911L19.8275 6.52373L22.0592 5.35829L20.1251 1.11182H17.3119L13.3626 8.41254C13.3626 8.41254 15.3102 8.35896 16.5545 7.42125C16.8656 7.2471 17.7582 4.94302 18.5697 3.38911Z" fill="black"/>
<path d="M22.0727 5.35819L19.841 6.52363C17.934 7.48813 16.1217 8.34546 15.1344 8.61338C12.5511 9.35015 9.41334 9.79221 8.29077 8.80092C7.23583 7.86321 9.68384 3.96503 14.3094 3.0943C15.0668 2.93355 15.4996 2.97374 15.4996 2.97374C15.4996 2.97374 15.1885 1.63415 14.9315 1.35284C14.5799 0.937571 14.2417 0.8438 13.7413 0.91078C12.7405 0.964363 8.4666 2.10301 6.78951 5.61271C5.85629 7.60869 7.10058 9.63146 7.91207 10.2209C8.29077 10.4888 10.7117 12.6455 16.311 10.4754C21.8292 8.35886 26.7793 5.0233 26.7793 5.0233V2.78619C26.7793 2.78619 24.6018 4.01861 22.0727 5.35819Z" fill="black"/>
<path d="M20.6119 8.55984C20.8148 9.04209 21.4099 10.4353 21.5587 10.8371C21.7616 11.2792 22.2485 11.2792 22.2485 11.2792H24.8182L22.8976 7.34082C22.2214 7.7293 21.437 8.14457 20.6119 8.55984Z" fill="black"/>
<path d="M26.7793 1.9156C26.7793 1.9156 23.8309 3.59008 23.1411 3.8446C22.5055 4.09912 22.2755 3.76423 22.1944 3.64366C22.0186 3.38914 21.7481 2.53181 21.7075 2.41125C21.721 2.41125 21.8833 2.45144 22.262 2.35766C22.7083 2.2505 26.7793 0 26.7793 0V1.9156Z" fill="black"/>
<path d="M2.27219 19.3167H0.85207L0.540997 19.9329H0L1.32544 17.3877H1.87996L3.2054 19.9329H2.56973L2.27219 19.3167ZM2.08284 18.9282L1.58241 17.9235L1.08199 18.9282H2.08284Z" fill="black"/>
<path d="M3.51648 19.5712L3.77345 19.2095C4.11158 19.4506 4.5579 19.5712 4.95012 19.5712C5.35587 19.5712 5.69399 19.4506 5.69399 19.263C5.69399 19.0621 5.32882 18.9951 4.89602 18.9014C4.31445 18.7808 3.61115 18.6334 3.61115 18.1244C3.61115 17.6555 4.20625 17.3608 4.8825 17.3608C5.34234 17.3608 5.82924 17.4948 6.18089 17.7225L5.92391 18.0842C5.63989 17.8699 5.24767 17.7627 4.8825 17.7627C4.51732 17.7627 4.16568 17.8699 4.16568 18.0574C4.16568 18.2316 4.5038 18.2985 4.90955 18.3789C5.50464 18.4995 6.24851 18.6468 6.24851 19.1961C6.24851 19.6917 5.63989 19.9864 4.95012 19.9864C4.42265 19.973 3.88165 19.8257 3.51648 19.5712Z" fill="black"/>
<path d="M6.60016 19.5712L6.85713 19.2095C7.19526 19.4506 7.64158 19.5712 8.0338 19.5712C8.43955 19.5712 8.77767 19.4506 8.77767 19.263C8.77767 19.0621 8.4125 18.9951 7.9797 18.9014C7.39813 18.7808 6.69483 18.6334 6.69483 18.1244C6.69483 17.6555 7.28993 17.3608 7.96618 17.3608C8.42602 17.3608 8.91292 17.4948 9.26457 17.7225L9.00759 18.0842C8.72357 17.8699 8.33135 17.7627 7.96618 17.7627C7.601 17.7627 7.24935 17.8699 7.24935 18.0574C7.24935 18.2316 7.58748 18.2985 7.99322 18.3789C8.58832 18.4995 9.33219 18.6468 9.33219 19.1961C9.33219 19.6917 8.72357 19.9864 8.0338 19.9864C7.51985 19.973 6.97886 19.8257 6.60016 19.5712Z" fill="black"/>
<path d="M9.85968 18.7943V17.4011H10.4142V18.821C10.4142 19.2765 10.7388 19.5846 11.2122 19.5846C11.6855 19.5846 12.0101 19.2765 12.0101 18.821V17.3877H12.5376V18.7809C12.5376 19.4908 11.9966 19.9731 11.1986 19.9731C10.4007 19.9731 9.85968 19.5042 9.85968 18.7943Z" fill="black"/>
<path d="M13.2409 17.3877H14.634C15.2832 17.3877 15.7971 17.6422 15.7971 18.2048C15.7971 18.6469 15.4725 18.8746 15.0397 18.9684L15.8783 19.9329H15.2426L14.4852 19.0488H13.7954V19.9329H13.2409V17.3877ZM14.5799 18.6469C14.9721 18.6469 15.2155 18.4862 15.2155 18.2048C15.2155 17.9369 14.9721 17.7896 14.5799 17.7896H13.7819V18.6469H14.5799Z" fill="black"/>
<path d="M18.4886 19.3167H17.0684L16.7574 19.9329H16.2029L17.5283 17.3877H18.0828L19.4083 19.9329H18.7996L18.4886 19.3167ZM18.2857 18.9282L17.7853 17.9235L17.2848 18.9282H18.2857Z" fill="black"/>
<path d="M20.4767 18.1245V19.9329H19.9222V17.3877H20.4767L22.0456 19.1961V17.3877H22.6001V19.9329H22.0456L20.4767 18.1245Z" fill="black"/>
<path d="M24.7776 17.3477C25.1699 17.3477 25.5891 17.4682 25.9272 17.7093L25.6703 18.0442C25.3998 17.8567 25.1699 17.7495 24.8182 17.7495C24.2096 17.7495 23.7362 18.1246 23.7362 18.6738C23.7362 19.2231 24.2096 19.5982 24.8182 19.5982C25.1834 19.5982 25.4268 19.491 25.7244 19.2901L25.9813 19.6249C25.6432 19.8661 25.2104 20 24.7912 20C23.9661 20 23.1817 19.5178 23.1817 18.6872C23.1682 17.8299 23.9526 17.3477 24.7776 17.3477Z" fill="black"/>
<path d="M26.4412 19.1961V17.3877H28.7675V17.7896H26.9957V18.4058H28.6187V18.8077H26.9957V19.1961C26.9957 19.4239 27.1039 19.5176 27.3203 19.5176H28.8216V19.9195H27.1851C26.7117 19.9329 26.4412 19.665 26.4412 19.1961Z" fill="black"/>
<path d="M29.2679 19.5712L29.5249 19.2095C29.863 19.4506 30.3093 19.5712 30.7016 19.5712C31.1073 19.5712 31.4454 19.4506 31.4454 19.263C31.4454 19.0621 31.0803 18.9951 30.6475 18.9014C30.0659 18.7808 29.3626 18.6334 29.3626 18.1244C29.3626 17.6555 29.9577 17.3608 30.6339 17.3608C31.0938 17.3608 31.5807 17.4948 31.9323 17.7225L31.6753 18.0842C31.3913 17.8699 30.9991 17.7627 30.6339 17.7627C30.2688 17.7627 29.9171 17.8699 29.9171 18.0574C29.9171 18.2316 30.2552 18.2985 30.661 18.3789C31.2561 18.4995 31.9999 18.6468 31.9999 19.1961C31.9999 19.6917 31.3913 19.9864 30.7016 19.9864C30.1741 19.973 29.6331 19.8257 29.2679 19.5712Z" fill="black"/>
</g>
<defs>
<clipPath id="clip0_1738_14732">
<rect width="31.9999" height="20" fill="white"/>
</clipPath>
</defs>
</svg>
