<svg width="95" height="20" viewBox="0 0 95 20" fill="none" xmlns="http://www.w3.org/2000/svg">
<g clip-path="url(#clip0_1738_14596)">
<path d="M20.5023 0H1V19.5023H20.5023V0Z" fill="black"/>
<path d="M12.5979 14.3472C12.1684 14.8196 11.7393 15.2067 11.1809 15.6362C11.2239 15.8938 11.2669 16.0231 11.3098 16.1948C11.095 16.2378 10.7941 16.2378 10.4934 16.2378C9.89218 16.6242 9.07614 16.8814 8.47485 17.0103C8.86114 16.7527 9.1618 16.5382 9.5481 16.1948C9.16172 16.1089 8.81831 15.9798 8.47485 15.8081C9.07601 15.8081 9.54847 15.765 10.1497 15.5933C10.4933 15.2067 10.7943 14.8627 11.095 14.4331V15.2065C11.6533 14.9489 12.0825 14.6907 12.5979 14.3472ZM4.09302 11.2974C4.26482 12.1993 4.43695 12.8865 4.86646 13.6167C5.3388 13.4879 5.7682 13.4448 6.32642 13.3589C6.02576 13.7884 5.8537 14.1325 5.68188 14.605C6.19736 15.1205 6.71334 15.4205 7.40063 15.6782C6.67037 15.6353 6.11141 15.5493 5.55298 15.3345C5.46708 15.8069 5.51009 16.1511 5.63892 16.5806C5.12369 16.0653 4.78034 15.5927 4.47974 14.9487C3.9213 14.691 3.49131 14.433 2.97583 14.1323C3.31948 13.9605 3.66345 13.8745 4.09302 13.7456C3.96416 12.9725 3.96419 12.2852 4.09302 11.2974ZM9.20435 5.88525C8.9896 6.18599 8.73264 6.70179 8.6897 6.9165C10.4507 7.17434 11.9114 8.07568 11.9114 8.07568C10.3649 7.81794 9.54793 7.8179 8.94653 7.90381C8.40476 7.94552 8.26756 8.02795 8.26001 8.03271C7.83044 8.9348 7.57251 10.5249 7.57251 10.5249C7.27181 9.8376 6.88501 8.4624 6.88501 8.4624C6.11794 8.88855 4.33613 10.5407 4.30786 10.5669C5.29579 8.59121 6.32642 7.68896 6.32642 7.68896C5.98259 7.34552 5.0809 7.17334 4.3938 7.13037C4.73767 7.00153 5.63937 6.83056 6.32642 6.7876H7.40063C7.95886 6.35819 8.8604 5.92848 9.20435 5.88525ZM12.0403 2.14795C13.7153 2.27688 15.8198 2.92069 16.8079 3.52197C17.1945 3.3931 17.6245 3.39304 18.3547 3.30713C18.1829 3.65077 18.1826 3.86589 17.4524 4.33838C17.6672 4.85386 17.1945 7.81809 16.7649 8.59131C16.7649 7.34557 16.6359 5.79912 16.2063 5.11182C15.0038 5.79896 14.6169 5.8846 13.3284 6.65771C14.1015 5.84165 14.3598 5.49828 14.8323 4.76807C13.6295 4.81102 11.8681 4.98298 10.6223 5.24072C11.6962 4.63933 13.8873 3.99459 15.0042 3.86572C14.7463 3.5221 12.5993 2.40604 12.0403 2.14795Z" fill="white"/>
<path d="M92.4541 6.01367C93.0984 6.01367 93.7433 6.1426 94.1299 6.22852L94.5166 6.31445V7.81836L94.1299 7.64648C93.7003 7.47466 92.9695 7.17383 92.1963 7.17383C91.1658 7.17396 91.166 7.60359 91.166 7.77539C91.1664 8.29056 91.982 8.59106 92.7978 8.93457C93.9147 9.36414 95.1181 9.83727 95.1181 11.083C95.1179 12.4143 93.915 13.1874 91.9394 13.1875C91.2092 13.1875 90.4354 13.0156 90.0488 12.9297H89.9199L89.7051 12.8867V11.4268L90.0058 11.5977C90.8218 11.9842 91.5091 12.1562 92.1533 12.1992C92.7977 12.2422 93.1846 12.1132 93.3994 11.8984C93.4851 11.7698 93.5282 11.6412 93.5283 11.4697C93.5283 10.9114 92.6696 10.5672 91.8535 10.2236C90.8227 9.79412 89.6194 9.32157 89.6191 8.11914C89.6191 6.91645 90.736 6.09969 92.4541 6.01367ZM28.8359 6.35742C30.0385 6.4004 31.3268 6.82976 31.3271 7.94629C31.3271 8.63349 30.7261 9.23533 29.8672 9.4502C31.0266 9.79382 31.6707 10.4381 31.6709 11.2969C31.6709 12.6715 30.0386 13.1445 28.4922 13.1445H25.3994V13.0586C25.4853 12.1995 25.4853 10.1806 25.4853 9.5791C25.4853 8.9348 25.4424 7.13077 25.3994 6.44336L25.3564 6.35742H28.8359ZM34.7637 6.35742C35.3221 7.04473 36.9121 9.49318 36.9121 9.53613C37.3845 10.2232 37.4697 10.3526 37.5556 10.6104C37.4697 9.79418 37.4697 8.93433 37.4267 8.0752L37.3838 6.35742H38.9306V6.40039H39.0596V6.44336C39.0166 7.13076 38.9736 8.9348 38.9736 9.5791C38.9736 10.1806 38.9736 12.1995 39.0596 13.0586V13.1445H37.7705V13.1016C37.6413 12.8433 34.8926 8.89159 34.8926 8.84863C34.6349 8.46215 34.5488 8.33292 34.5058 8.11816C34.5058 9.75051 34.5059 11.4262 34.5918 13.0586V13.1445H33.0029V13.0586C33.0888 12.1995 33.0889 10.1806 33.0889 9.5791C33.0889 8.9348 33.0459 7.13078 33.0029 6.44336V6.35742H34.7637ZM43.7851 6.35742C45.2025 6.40044 46.8777 6.74405 46.8779 8.33301C46.8779 9.70756 45.6749 10.3525 43.1836 10.3525H42.582C42.582 11.2546 42.625 12.4143 42.668 13.0586V13.1445H40.7773V13.0586C40.8632 12.1995 40.8633 10.1806 40.8633 9.5791C40.8633 9.0959 40.8398 7.96037 40.8096 7.13281L40.8203 6.44336V6.35742H43.7851ZM53.4072 6.35742C54.8246 6.40041 56.5427 6.74397 56.543 8.33301C56.543 9.7076 55.34 10.3525 52.8486 10.3525H52.2471C52.2471 11.2546 52.29 12.4143 52.333 13.0586V13.1445H50.4433V13.0586C50.5293 12.1995 50.5293 10.1806 50.5293 9.5791C50.5293 8.9348 50.4863 7.13079 50.4433 6.44336V6.35742H53.4072ZM63.2441 13.1445H61.3965V13.1016C61.3105 12.8438 61.0966 12.2849 60.7959 11.5547H58.1318C57.917 12.1131 57.7031 12.6291 57.5742 13.1016V13.1445H55.9844L56.0273 13.0586C56.371 12.2854 58.6474 7.34573 59.0342 6.35742H60.2373L63.2441 13.1445ZM67.0244 6.35742C68.4848 6.40041 70.1599 6.7869 70.1601 8.33301C70.1601 9.19214 69.6442 9.79403 68.6133 10.0947L68.6562 10.1377C69.2147 10.9539 70.5469 12.8868 70.6328 13.0156L70.6758 13.1016H68.6562V13.0586C68.2267 12.2424 67.239 10.5671 66.5517 9.5791L66.4658 9.4502L66.5947 9.49316H66.9814C67.6687 9.45015 68.3984 9.06319 68.3984 8.29004C68.3983 8.07536 68.3124 7.86022 68.1836 7.68848C67.8827 7.34516 67.2386 7.17383 66.3799 7.17383C66.208 7.17383 65.9931 7.2168 65.8642 7.2168C65.8213 8.07586 65.8213 9.10665 65.8213 9.5791C65.8213 10.1806 65.8643 12.1995 65.9502 13.0586V13.1445H64.0605V13.0586C64.1464 12.1995 64.1465 10.1806 64.1465 9.5791C64.1465 8.9348 64.1035 7.13078 64.0605 6.44336V6.35742H67.0244ZM78.5791 6.35742C79.7817 6.40037 81.071 6.82972 81.0713 7.94629C81.0713 8.63359 80.4695 9.23541 79.6103 9.4502C80.77 9.79379 81.4148 10.438 81.415 11.2969C81.415 12.6713 79.7826 13.1444 78.2363 13.1445H75.0996V13.0586C75.1855 12.1995 75.1855 10.1806 75.1855 9.5791C75.1855 8.93479 75.1425 7.13075 75.0996 6.44336V6.35742H78.5791ZM89.0176 13.1445H87.1709V13.1016C87.085 12.8438 86.87 12.2849 86.5693 11.5547H83.9062C83.6915 12.1131 83.5195 12.629 83.3906 13.1016V13.1445H81.7578L81.8008 13.0586C82.0155 12.629 84.379 7.43135 84.7656 6.40039V6.35742H86.0107L89.0176 13.1445ZM73.4248 6.40039C73.3818 7.08779 73.3389 8.89182 73.3389 9.53613C73.3389 10.1376 73.3389 12.1565 73.4248 13.0156V13.1016H71.5342V13.0156C71.6201 12.1565 71.6201 10.1376 71.6201 9.53613C71.6201 8.89182 71.5771 7.08777 71.5342 6.40039V6.35742H73.4248V6.40039ZM27.8047 7.13086C27.5899 7.13086 27.3319 7.13088 27.2031 7.17383C27.2031 8.07583 27.1601 9.10664 27.1601 9.5791C27.1601 9.96576 27.1602 11.3402 27.2031 12.3281H27.9765C29.2652 12.3281 29.9101 11.9412 29.9101 11.2109C29.91 10.9965 29.8239 10.782 29.6953 10.6104C29.3946 10.2237 28.7498 10.0088 28.0195 10.0088H27.6328L28.0195 9.06348H28.0625C28.7068 9.10643 29.1797 8.93448 29.4375 8.63379C29.5662 8.50495 29.6094 8.33281 29.6094 8.11816C29.6092 7.38818 29.1361 7.13086 27.8047 7.13086ZM77.5058 7.13086C77.2911 7.13086 77.0331 7.13087 76.8613 7.17383C76.8184 8.07583 76.8183 9.10664 76.8183 9.5791C76.8183 9.96577 76.8184 11.3402 76.8613 12.3281H77.6348C78.9662 12.3281 79.6103 11.9411 79.6103 11.2109C79.6103 10.9963 79.5671 10.782 79.3955 10.6104C79.0519 10.2238 78.4508 10.0089 77.7207 10.0088H77.3769L77.7207 9.06348H77.7637C78.4078 9.10635 78.88 8.93443 79.1377 8.63379C79.2665 8.50492 79.3096 8.33295 79.3096 8.11816C79.3094 7.38823 78.8371 7.13089 77.5058 7.13086ZM59.5068 8.37598C59.2061 9.02032 58.8622 9.79419 58.5185 10.6533H60.4951C60.0655 9.57941 59.6357 8.71963 59.5068 8.37598ZM85.2373 8.33301C84.9366 9.02031 84.5936 9.79418 84.293 10.6104H86.2256C85.796 9.53644 85.4091 8.6337 85.2373 8.33301ZM43.0976 7.17383C42.8829 7.17383 42.6679 7.21677 42.539 7.2168V9.49316H43.0976C43.9997 9.49312 45.1162 9.27794 45.1162 8.29004C45.1161 8.07536 45.0302 7.86022 44.9014 7.68848C44.6006 7.34511 43.9993 7.17386 43.0976 7.17383ZM52.7627 7.17383C52.5479 7.17383 52.333 7.2168 52.2041 7.2168V9.49316H52.7627C53.6648 9.49315 54.7812 9.27802 54.7812 8.29004C54.7812 8.07536 54.6952 7.86022 54.5664 7.68848C54.2656 7.34515 53.6643 7.17384 52.7627 7.17383Z" fill="black"/>
</g>
<defs>
<clipPath id="clip0_1738_14596">
<rect width="95" height="20" fill="white"/>
</clipPath>
</defs>
</svg>
