<svg width="36" height="20" viewBox="0 0 36 20" fill="none" xmlns="http://www.w3.org/2000/svg">
<g clip-path="url(#clip0_1738_14691)">
<path d="M29.5718 0.460288C29.5175 0.352193 29.4097 0.297949 29.3019 0.297949H27.17C27.0623 0.297949 26.9545 0.352193 26.9006 0.460288L23.1502 7.57884C23.0964 6.95621 22.7183 6.33398 22.2057 5.95466C21.3693 5.35955 19.9125 4.95351 18.2661 4.8179C17.322 4.73653 14.543 4.60131 13.6798 4.30376C13.0323 4.06005 12.7085 3.70786 12.7085 3.19372C12.7085 1.78652 15.3522 1.67764 16.2429 1.67764C18.1855 1.67764 19.6966 2.08368 20.9649 2.73343C21.0994 2.8144 21.2611 2.76055 21.3422 2.62533L21.8552 1.65091C21.9362 1.48857 21.9087 1.29911 21.7198 1.19062C20.2359 0.351407 18.4821 0 16.4317 0C14.8935 0 13.4096 0.21619 12.1951 0.946913C11.9524 1.08252 11.7636 1.24486 11.5747 1.4072C11.035 0.676479 9.90158 0.297163 8.74183 0.297163H0.323771C0.134544 0.297163 0 0.432773 0 0.595112V11.3138C0 11.5033 0.134544 11.6385 0.323771 11.6385H1.59171C1.7534 11.6385 1.88873 11.5029 1.88873 11.3138V2.27353C1.88873 2.1112 2.02367 1.97558 2.18575 1.97558H8.25676C9.76743 1.97558 10.5499 2.59821 10.5499 3.8702C10.5499 5.03448 9.82133 5.62959 8.36455 5.62959H3.93955L3.04927 7.30801H8.3378C9.68639 7.30801 10.712 7.01006 11.4134 6.41495C11.6562 6.19837 11.845 5.95466 12.0071 5.68423C12.7624 6.03603 14.0575 6.30646 15.9191 6.41495C18.0238 6.54978 19.3185 6.68539 19.8043 6.821C20.7222 7.0647 21.1805 7.5242 21.1805 8.25532C21.1805 9.98798 18.4825 10.2584 17.0796 10.2584C15.1638 10.2584 13.2754 9.8791 11.6833 8.8237C11.5216 8.71561 11.3863 8.74234 11.3052 8.87795L10.7387 9.93374C10.631 10.1232 10.712 10.2584 10.8198 10.3398C12.7896 11.6122 15.0564 11.9093 17.1874 11.9093C18.6174 11.9093 20.6679 11.5308 21.3426 11.0434L21.1809 11.3409C21.1274 11.4494 21.1809 11.6389 21.3968 11.6389H22.8808C22.989 11.6389 23.0967 11.5575 23.151 11.4766L27.9266 2.40914C27.9801 2.30105 28.0344 2.24681 28.1693 2.24681H28.331C28.4655 2.24681 28.5198 2.30105 28.5737 2.40914L31.0289 7.06509C31.1367 7.28128 31.0557 7.41689 30.8401 7.41689H26.7928L25.9025 9.09532H31.9192C32.027 9.09532 32.1352 9.14917 32.1891 9.25765L33.3221 11.4769C33.3764 11.5579 33.4838 11.6393 33.5924 11.6393H35.0763C35.319 11.6393 35.319 11.4227 35.2651 11.2875L29.5718 0.460288ZM29.1402 19.8675H26.9549V17.7838H29.0596V18.081H27.3058V18.6226H28.8168V18.9473H27.3058V19.5699H29.1406L29.1402 19.8675ZM24.5531 18.7578C24.823 18.7578 24.9579 18.6493 24.9579 18.4332C24.9579 18.1895 24.823 18.081 24.5264 18.081H23.2848V18.7578H24.5531ZM24.6074 17.7838C24.823 17.7838 24.9847 17.8377 25.12 17.9461C25.255 18.081 25.3089 18.2166 25.3089 18.4332C25.3089 18.6493 25.2554 18.785 25.12 18.9202C24.9851 19.0283 24.7962 19.0825 24.5535 19.0825H23.2852V19.8671H22.9614V17.7834L24.6074 17.7838ZM21.1805 19.191C21.1805 19.4076 21.0727 19.597 20.8567 19.7327C20.6411 19.8675 20.3441 19.9488 19.9936 19.9488C19.6423 19.9488 19.346 19.8675 19.1301 19.7327C18.9141 19.597 18.8063 19.4076 18.8063 19.191V17.7838H19.1568V19.11C19.1568 19.2724 19.2111 19.408 19.3728 19.4893C19.5077 19.5703 19.7233 19.6242 19.9936 19.6242C20.2634 19.6242 20.4794 19.5703 20.614 19.4893C20.7489 19.408 20.83 19.2728 20.83 19.11V17.7838H21.1805V19.191ZM16.9179 18.8117C16.9179 18.568 16.8098 18.3785 16.5942 18.2162C16.4049 18.0806 16.1894 18.0267 15.9191 18.0267C15.6492 18.0267 15.4065 18.1081 15.218 18.2429C15.0288 18.4053 14.9478 18.5951 14.9478 18.8113C14.9478 19.055 15.0288 19.2449 15.218 19.4072C15.3797 19.5424 15.6229 19.6234 15.9191 19.6234C16.2161 19.6234 16.4588 19.5424 16.6477 19.4072C16.8094 19.2449 16.9179 19.055 16.9179 18.8113V18.8117ZM17.2685 18.8117C17.2685 19.1639 17.1335 19.4343 16.8369 19.6513C16.5942 19.8408 16.2972 19.9488 15.9191 19.9488C15.5686 19.9488 15.2448 19.8408 15.0017 19.6513C14.7318 19.4347 14.5701 19.1643 14.5701 18.8117C14.5701 18.487 14.7318 18.2162 15.0017 17.9996C15.2715 17.8101 15.5682 17.702 15.9191 17.702C16.2972 17.702 16.5942 17.8101 16.8369 17.9996C17.1335 18.2162 17.2685 18.4866 17.2685 18.8117ZM12.277 18.7578C12.5472 18.7578 12.6818 18.6493 12.6818 18.4332C12.6818 18.1895 12.5472 18.081 12.2502 18.081H11.0362V18.7578H12.277ZM13.0594 19.8675H12.6546L12.0881 19.0829H11.0358V19.8675H10.6852V17.7838H12.3309C12.5468 17.7838 12.7357 17.8377 12.8435 17.9461C12.9788 18.081 13.0327 18.2433 13.0327 18.4332C13.0327 18.6226 12.9788 18.7578 12.8977 18.8663C12.79 18.9744 12.655 19.0287 12.4929 19.0558L13.0594 19.8675ZM8.98535 18.785C8.98535 19.1368 8.87716 19.4076 8.63404 19.6238C8.39131 19.8404 8.06753 19.9488 7.66272 19.9488C7.28545 19.9488 6.98843 19.8408 6.7453 19.6513C6.44828 19.4347 6.31374 19.1643 6.31374 18.8117C6.31374 18.487 6.44828 18.2162 6.7453 17.9996C6.98803 17.8101 7.31181 17.702 7.68987 17.702C8.14818 17.702 8.52624 17.8644 8.82287 18.2162L8.4991 18.3785C8.28312 18.1348 8.01364 18.0267 7.66233 18.0267C7.39285 18.0267 7.17687 18.0806 6.98803 18.2162C6.77206 18.3785 6.66426 18.568 6.66426 18.8117C6.66426 19.0554 6.77206 19.2452 6.93374 19.4076C7.12297 19.5428 7.3657 19.6238 7.66233 19.6238C8.12104 19.6238 8.41806 19.4343 8.5526 19.0829H7.58129V18.7582H8.98456V18.785H8.98535ZM6.39517 14.914H29.1402V15.2119H6.39517V14.914Z" fill="black"/>
</g>
<defs>
<clipPath id="clip0_1738_14691">
<rect width="36" height="20" fill="white"/>
</clipPath>
</defs>
</svg>
