<svg width="73" height="20" viewBox="0 0 73 20" fill="none" xmlns="http://www.w3.org/2000/svg">
<g clip-path="url(#clip0_1738_14718)">
<path d="M9.53624 14.4638L8.132 11.6021H6.34618L8.02643 8.02814L12.2608 16.5664H16.2064L9.32128 3.49602H6.71886L0.0907059 16.5639L4.02486 16.5651L5.01698 14.4638H9.53624Z" fill="black"/>
<path d="M30.3667 11.8579C32.3904 11.2305 33.3418 9.70336 33.3418 7.84159C33.3418 5.46021 31.7048 3.52873 28.3354 3.52873H21.5292V16.5991L24.6849 16.5979L24.6836 6.28907H28.5517C29.6964 6.2916 30.1721 6.99372 30.1721 7.83399C30.1721 8.67426 29.6722 9.3485 28.5288 9.3485H25.822L29.9165 16.5979H33.1536C33.1536 16.5979 30.3515 11.8604 30.3667 11.8579Z" fill="black"/>
<path d="M20.1439 3.50196H16.8814V16.5698H20.1439V3.50196Z" fill="black"/>
<path d="M56.7642 3.46608L56.7655 10.8143C56.7655 13.0601 55.4478 14.003 53.8286 14.003C52.2068 14.003 50.9005 13.0639 50.9005 10.8168V3.46608H47.6316V10.8358C47.6316 15.5352 50.4019 16.9053 53.8286 16.9053C57.2565 16.9053 60.0332 15.5352 60.0332 10.8358L60.0319 3.46608H56.7642Z" fill="black"/>
<path d="M42.3143 13.807H37.7098V11.2329H42.3156C43.0724 11.2431 43.6842 11.8083 43.6842 12.5117C43.6842 13.2176 43.0711 13.807 42.3143 13.807ZM37.7098 6.25723H42.2329C42.8536 6.26357 43.3777 6.7401 43.3777 7.36238C43.3777 7.98466 42.8282 8.4802 42.2075 8.47513H37.7098V6.25723ZM44.9155 9.85783C45.7664 9.25963 46.0882 8.27108 46.0882 7.18241C46.0882 5.13561 44.3596 3.49564 42.2367 3.49564H34.5541V16.5648H42.5395V16.5698C44.7806 16.5698 46.6479 14.8449 46.6479 12.736C46.6479 11.3597 45.8173 10.342 44.9155 9.85783Z" fill="black"/>
<path d="M68.2374 8.55972C65.5917 7.98687 64.6976 7.73339 64.6976 6.89693C64.6976 6.15805 65.6553 5.78798 67.169 5.78798C68.5974 5.78798 70.3209 6.39378 71.3359 6.99959L72.3674 4.33938C70.8322 3.70316 68.9866 3.09482 66.5457 3.09482C63.3455 3.09482 61.346 4.95912 61.346 7.23785C61.346 9.51912 62.9931 10.5216 66.2544 11.2111C68.7869 11.7446 69.4725 12.0627 69.4725 12.8485C69.4725 13.6317 68.4562 13.9207 67.085 13.9207C65.3106 13.9207 63.6024 13.3326 61.9921 12.6419L61.0191 15.2362C62.9435 16.1259 64.9418 16.8369 67.3229 16.8369C71.2901 16.8369 72.9093 14.9473 72.9093 12.7458C72.9093 10.7878 71.547 9.27705 68.2374 8.55972Z" fill="black"/>
</g>
<defs>
<clipPath id="clip0_1738_14718">
<rect width="73" height="20" fill="white"/>
</clipPath>
</defs>
</svg>
