<svg width="80" height="80" viewBox="0 0 80 80" fill="none" xmlns="http://www.w3.org/2000/svg">
<g clip-path="url(#clip0_1927_1878)">
<path fill-rule="evenodd" clip-rule="evenodd" d="M21.3782 0H58.8766C65.8736 0 71.3763 5.50225 71.1123 12.2562V53.255C71.1123 59.9983 65.6201 65.5005 58.8656 65.5005H50.6166L55.1198 79.9977L33.3728 65.5005H21.3782C14.3813 65.5005 8.87854 59.9982 8.87854 53.0022V12.2562C8.87854 5.50225 14.3813 0 21.3782 0ZM35.9416 44.997C34.6651 44.2963 33.6448 43.2712 32.8806 41.9222C32.1175 40.574 31.736 38.959 31.736 37.0773V15.2213C31.7357 14.8842 31.6602 14.6269 31.5096 14.4495C31.3589 14.272 31.1062 14.1833 30.7514 14.1833H25.1621C25.0352 14.1812 24.9095 14.2076 24.7942 14.2606C24.6789 14.3136 24.577 14.3919 24.496 14.4896C24.3192 14.6917 24.2242 14.9527 24.2299 15.2213V36.9712C24.2302 40.4497 24.9444 43.3693 26.3726 45.7293C27.7997 48.09 29.7199 49.8472 32.1331 51.0005C34.5463 52.1537 37.2346 52.7303 40.1978 52.7303C43.1788 52.7303 45.8716 52.167 48.2763 51.0402C50.6808 49.9132 52.5971 48.1743 54.0256 45.8225C55.4541 43.471 56.1683 40.547 56.1683 37.0505V15.2479C56.1721 15.1084 56.1481 14.9695 56.0978 14.8393C56.0476 14.7092 55.9718 14.5903 55.8753 14.4896C55.6801 14.2854 55.4141 14.1833 55.0771 14.1833H49.7551C49.4351 14.1833 49.1776 14.281 48.9826 14.4765C48.7873 14.6719 48.6898 14.9291 48.6898 15.2479V37.0773C48.6898 38.8343 48.3126 40.3963 47.5583 41.763C46.8046 43.1298 45.7801 44.1855 44.4846 44.9307C43.1891 45.676 41.7606 46.0485 40.1991 46.0485C38.6373 46.0485 37.2181 45.698 35.9416 44.997Z" fill="white"/>
</g>
<defs>
<clipPath id="clip0_1927_1878">
<rect width="80" height="79.9977" fill="white"/>
</clipPath>
</defs>
</svg>
