<svg width="80" height="80" viewBox="0 0 80 80" fill="none" xmlns="http://www.w3.org/2000/svg">
<g clip-path="url(#clip0_1926_4844)">
<path d="M27.1666 80.0002C34.5266 80.0002 40.5 74.0268 40.5 66.6668V53.3335H27.1666C19.8066 53.3335 13.8333 59.3068 13.8333 66.6668C13.8333 74.0268 19.8066 80.0002 27.1666 80.0002Z" fill="#CCCCCC"/>
<path d="M13.8333 39.9998C13.8333 32.6398 19.8066 26.6665 27.1666 26.6665H40.5V53.3332H27.1666C19.8066 53.3332 13.8333 47.3598 13.8333 39.9998Z" fill="#999999"/>
<path d="M13.8333 13.3333C13.8333 5.97333 19.8066 0 27.1666 0H40.5V26.6667H27.1666C19.8066 26.6667 13.8333 20.6933 13.8333 13.3333Z" fill="#999999"/>
<path d="M40.5 0H53.8333C61.1933 0 67.1667 5.97333 67.1667 13.3333C67.1667 20.6933 61.1933 26.6667 53.8333 26.6667H40.5V0Z" fill="white"/>
<path d="M67.1667 39.9998C67.1667 47.3598 61.1933 53.3332 53.8333 53.3332C46.4733 53.3332 40.5 47.3598 40.5 39.9998C40.5 32.6398 46.4733 26.6665 53.8333 26.6665C61.1933 26.6665 67.1667 32.6398 67.1667 39.9998Z" fill="white"/>
</g>
<defs>
<clipPath id="clip0_1926_4844">
<rect width="53.344" height="80" fill="white" transform="translate(13.828)"/>
</clipPath>
</defs>
</svg>
