<svg width="80" height="80" viewBox="0 0 80 80" fill="none" xmlns="http://www.w3.org/2000/svg">
<g clip-path="url(#clip0_1926_4869)">
<path d="M40 0C59.0615 0 59.1306 8.63307 59.1309 8.69531C59.1309 8.69531 59.2741 24.1803 59.2021 29.4814C59.1302 34.7823 55.6518 38.2607 50.4229 38.2607H29.5654C22.609 38.2607 17.3917 43.4782 17.3916 50.4346V59.1309H8.69531C8.63307 59.1306 0 59.0615 0 40C2.25003e-07 20.9385 8.63307 20.8694 8.69531 20.8691H40V17.3916H20.8691V8.69531C20.8694 8.63307 20.9385 2.24964e-07 40 0ZM29.5654 5.21777C27.6445 5.21777 26.087 6.77443 26.0869 8.69531C26.0869 10.6163 27.6444 12.1738 29.5654 12.1738C31.4863 12.1737 33.0439 10.6162 33.0439 8.69531C33.0438 6.77449 31.4863 5.21788 29.5654 5.21777Z" fill="#CCCCCC"/>
<path d="M71.3047 20.8691C71.3666 20.8694 80 20.9382 80 40C80 59.0618 71.3666 59.1306 71.3047 59.1309H40V62.6084H59.1309V71.3047C59.1307 71.3607 59.0684 80 40 80C20.9316 80 20.8693 71.3607 20.8691 71.3047C20.8691 71.3047 20.8691 55.652 20.8691 50.4346C20.8693 45.2173 24.3481 41.7393 29.5654 41.7393H50.4346C57.391 41.7393 62.6083 36.5219 62.6084 29.5654V20.8691H71.3047ZM50.4346 67.8262C48.5137 67.8263 46.957 69.3838 46.957 71.3047C46.9572 73.2255 48.5138 74.7821 50.4346 74.7822C52.3555 74.7822 53.9129 73.2256 53.9131 71.3047C53.9131 69.3837 52.3556 67.8262 50.4346 67.8262Z" fill="white"/>
</g>
<defs>
<clipPath id="clip0_1926_4869">
<rect width="80" height="80" fill="white"/>
</clipPath>
</defs>
</svg>
