<svg width="80" height="80" viewBox="0 0 80 80" fill="none" xmlns="http://www.w3.org/2000/svg">
<g clip-path="url(#clip0_1926_4860)">
<path d="M39.9996 75.8329C23.9169 75.8329 10.8331 62.7491 10.8331 46.6665C10.8331 30.5838 23.9169 17.5 39.9996 17.5C56.0823 17.5 69.1661 30.5838 69.1661 46.6665C69.1661 62.7491 56.0823 75.8329 39.9996 75.8329ZM39.9996 24.1666C27.5933 24.1666 17.4998 34.2601 17.4998 46.6665C17.4998 59.0728 27.5933 69.1663 39.9996 69.1663C52.4059 69.1663 62.4994 59.0728 62.4994 46.6665C62.4994 34.2601 52.4059 24.1666 39.9996 24.1666Z" fill="#CCCCCC"/>
<path d="M60.8943 79.9203C59.9064 79.9203 58.9286 79.4833 58.2711 78.6463L46.5491 63.7278C45.4114 62.2804 45.6629 60.1849 47.1107 59.0476C48.5584 57.9099 50.6543 58.1614 51.7908 59.6091L63.5127 74.5276C64.6504 75.975 64.3989 78.0705 62.9512 79.2078C62.3409 79.6879 61.615 79.9203 60.8943 79.9203Z" fill="#CCCCCC"/>
<path d="M76.6661 80C74.8253 80 73.3328 78.5075 73.3328 76.6667V12.9717L42.621 52.0595C41.9886 52.864 41.0227 53.3335 39.9997 53.3335C38.9768 53.3335 38.0108 52.864 37.3785 52.0595L6.66662 12.9717V76.6667C6.66662 78.5075 5.17412 80 3.33331 80C1.4925 80 0 78.5075 0 76.6667V3.33386C0 1.91297 0.900873 0.647924 2.24364 0.183653C3.58803 -0.281025 5.07687 0.157205 5.95455 1.27455L39.9997 44.6051L74.0449 1.27455C74.9234 0.157612 76.4106 -0.281839 77.7558 0.183653C79.0986 0.647924 79.9995 1.91297 79.9995 3.33386V76.6667C79.9995 78.5075 78.507 80 76.6661 80Z" fill="white"/>
</g>
<defs>
<clipPath id="clip0_1926_4860">
<rect width="80" height="80" fill="white"/>
</clipPath>
</defs>
</svg>
