<svg width="80" height="80" viewBox="0 0 80 80" fill="none" xmlns="http://www.w3.org/2000/svg">
<path d="M39.2256 49.9385C39.3065 49.9848 39.3739 50.0513 39.4209 50.1318C39.4679 50.2126 39.4928 50.305 39.4932 50.3984V69.8496C39.4928 69.943 39.4679 70.0345 39.4209 70.1152C39.3739 70.196 39.3067 70.2632 39.2256 70.3096L22.5137 79.9648C22.3337 80.0648 22.1143 79.9373 22.1143 79.7334V60.4336C22.115 60.3399 22.0903 60.2474 22.0439 60.166C21.9976 60.0847 21.9305 60.0169 21.8496 59.9697L5.13086 50.3184C5.09124 50.2947 5.05801 50.2608 5.03516 50.2207C5.0123 50.1804 5 50.1342 5 50.0879C5.00002 50.0416 5.01234 49.9963 5.03516 49.9561C5.05802 49.9157 5.09109 49.8822 5.13086 49.8584L22.1143 40.0586L39.2256 49.9385ZM56.875 20.0684C56.9683 20.0684 57.0598 20.093 57.1406 20.1396L73.9883 29.8672C74.0687 29.9141 74.1353 29.9818 74.1816 30.0625C74.2279 30.1431 74.253 30.2342 74.2529 30.3271V49.7832C74.2529 49.8761 74.2279 49.9673 74.1816 50.0479C74.1353 50.1286 74.0687 50.1963 73.9883 50.2432L57.2725 59.8945C57.0966 59.9981 56.8733 59.8666 56.873 59.667V40.3633C56.8731 40.2702 56.849 40.1784 56.8027 40.0977C56.7565 40.0171 56.6896 39.9502 56.6094 39.9033L39.4932 30.0195L56.6094 20.1396C56.6902 20.0931 56.7817 20.0684 56.875 20.0684ZM22.1123 0C22.2056 5.12998e-05 22.2972 0.0246645 22.3779 0.0712891L39.2256 9.79492C39.3073 9.84163 39.3748 9.9097 39.4219 9.99121C39.4689 10.0726 39.4935 10.1648 39.4932 10.2588V30.0186L22.1143 40.0547V20.2949C22.115 20.2012 22.0903 20.1088 22.0439 20.0273C21.9976 19.9459 21.9305 19.8782 21.8496 19.8311L5.13086 10.1787C5.09109 10.1549 5.05802 10.1214 5.03516 10.0811C5.01233 10.0408 5.00003 9.99549 5 9.94922C5 9.90288 5.0123 9.85672 5.03516 9.81641C5.05801 9.77629 5.09123 9.74245 5.13086 9.71875L21.8457 0.0712891C21.9266 0.0245975 22.0189 0 22.1123 0Z" fill="white"/>
</svg>
