<svg width="80" height="80" viewBox="0 0 80 80" fill="none" xmlns="http://www.w3.org/2000/svg">
<g clip-path="url(#clip0_1926_4855)">
<path d="M66.8572 0H45.6508C43.8274 0 42.3492 1.47817 42.3492 3.30159V76.6984C42.3492 78.5218 43.8274 80 45.6508 80H66.8572C68.6806 80 70.1587 78.5218 70.1587 76.6984V3.30159C70.1587 1.47817 68.6806 0 66.8572 0Z" fill="#999999"/>
<g filter="url(#filter0_d_1926_4855)">
<path d="M53.7778 76.6984V80H50.4762H29.2698C27.4464 80 25.9683 78.5218 25.9683 76.6984V23.2381C25.9683 21.4147 27.4464 19.9365 29.2698 19.9365H50.4762C52.2996 19.9365 53.7778 21.4147 53.7778 23.2381V76.6984Z" fill="#CCCCCC"/>
</g>
<g filter="url(#filter1_d_1926_4855)">
<path fill-rule="evenodd" clip-rule="evenodd" d="M37.6508 76.6984V80H34.3492H13.1429C11.3194 80 9.84126 78.5218 9.84126 76.6984V43.3016C9.84126 41.4782 11.3194 40 13.1429 40H34.3492C36.1726 40 37.6508 41.4782 37.6508 43.3016V76.6984Z" fill="white"/>
</g>
</g>
<defs>
<filter id="filter0_d_1926_4855" x="15.9683" y="5.93652" width="55.8095" height="88.0635" filterUnits="userSpaceOnUse" color-interpolation-filters="sRGB">
<feFlood flood-opacity="0" result="BackgroundImageFix"/>
<feColorMatrix in="SourceAlpha" type="matrix" values="0 0 0 0 0 0 0 0 0 0 0 0 0 0 0 0 0 0 127 0" result="hardAlpha"/>
<feOffset dx="4"/>
<feGaussianBlur stdDeviation="7"/>
<feComposite in2="hardAlpha" operator="out"/>
<feColorMatrix type="matrix" values="0 0 0 0 0 0 0 0 0 0 0 0 0 0 0 0 0 0 0.08 0"/>
<feBlend mode="normal" in2="BackgroundImageFix" result="effect1_dropShadow_1926_4855"/>
<feBlend mode="normal" in="SourceGraphic" in2="effect1_dropShadow_1926_4855" result="shape"/>
</filter>
<filter id="filter1_d_1926_4855" x="-0.158737" y="26" width="55.8095" height="68" filterUnits="userSpaceOnUse" color-interpolation-filters="sRGB">
<feFlood flood-opacity="0" result="BackgroundImageFix"/>
<feColorMatrix in="SourceAlpha" type="matrix" values="0 0 0 0 0 0 0 0 0 0 0 0 0 0 0 0 0 0 127 0" result="hardAlpha"/>
<feOffset dx="4"/>
<feGaussianBlur stdDeviation="7"/>
<feComposite in2="hardAlpha" operator="out"/>
<feColorMatrix type="matrix" values="0 0 0 0 0 0 0 0 0 0 0 0 0 0 0 0 0 0 0.08 0"/>
<feBlend mode="normal" in2="BackgroundImageFix" result="effect1_dropShadow_1926_4855"/>
<feBlend mode="normal" in="SourceGraphic" in2="effect1_dropShadow_1926_4855" result="shape"/>
</filter>
<clipPath id="clip0_1926_4855">
<rect width="80" height="80" fill="white"/>
</clipPath>
</defs>
</svg>
