<svg width="80" height="80" viewBox="0 0 80 80" fill="none" xmlns="http://www.w3.org/2000/svg">
<path d="M78.6615 40H60.3231C59.4749 39.9943 58.6637 39.6514 58.0677 39.0466C57.4717 38.4419 57.1397 37.6248 57.1446 36.7748V4.35667C57.1446 3.99951 57.0041 3.65675 56.7535 3.40277C56.503 3.14878 56.1625 3.00406 55.8062 3H47.0523C46.6959 3.00406 46.3555 3.14878 46.1049 3.40277C45.8543 3.65675 45.7138 3.99951 45.7138 4.35667V36.7748C45.7188 37.6248 45.3867 38.4419 44.7907 39.0466C44.1948 39.6514 43.3835 39.9943 42.5354 40H37.4646C36.6165 39.9943 35.8052 39.6514 35.2093 39.0466C34.6133 38.4419 34.2812 37.6248 34.2862 36.7748V4.35667C34.2862 3.99951 34.1457 3.65675 33.8951 3.40277C33.6445 3.14878 33.3041 3.00406 32.9477 3H24.1969C23.8405 3.00406 23.5001 3.14878 23.2495 3.40277C22.999 3.65675 22.8584 3.99951 22.8585 4.35667V36.7748C22.8634 37.6248 22.5314 38.4419 21.9354 39.0466C21.3394 39.6514 20.5282 39.9943 19.68 40H1.34154C0.984613 40.0033 0.643411 40.1476 0.392171 40.4017C0.140931 40.6558 -1.47487e-05 40.999 1.15756e-09 41.3567V75.6433C1.15756e-09 76.3926 0.6 77 1.33846 77H21.52C22.2585 77 22.8585 76.3926 22.8585 75.6433V43.2252C22.8535 42.3752 23.1856 41.5581 23.7816 40.9534C24.3776 40.3486 25.1888 40.0057 26.0369 40H31.1077C32.8615 40 34.2862 41.443 34.2862 43.2252V75.6433C34.2862 76.3926 34.8862 77 35.6246 77H44.3785C45.1169 77 45.7138 76.3926 45.7138 75.6433V43.2252C45.7089 42.3752 46.041 41.5581 46.6369 40.9534C47.2329 40.3486 48.0441 40.0057 48.8923 40H53.9662C55.72 40 57.1446 41.443 57.1446 43.2252V75.6433C57.1446 76.3926 57.7415 77 58.48 77H78.6646C79.4031 77 80 76.3926 80 75.6433V41.3567C80 40.9995 79.8595 40.6568 79.6089 40.4028C79.3583 40.1488 79.0179 40.0041 78.6615 40Z" fill="white"/>
</svg>
