<svg width="80" height="80" viewBox="0 0 80 80" fill="none" xmlns="http://www.w3.org/2000/svg">
<path fill-rule="evenodd" clip-rule="evenodd" d="M39.9395 62.7043C17.9369 62.7043 0.100098 50.7564 0.100098 36.018C0.100098 21.2794 17.9369 9.33154 39.9395 9.33154C61.9423 9.33154 79.779 21.2794 79.779 36.018C79.779 50.7564 61.9423 62.7043 39.9395 62.7043ZM46.0377 19.765C29.3137 19.765 15.7562 27.9331 15.7562 38.0089C15.7562 48.0848 29.3137 56.2528 46.0377 56.2528C62.7615 56.2528 75.1035 50.6685 75.1035 38.0089C75.1035 25.3533 62.7615 19.765 46.0377 19.765Z" fill="white"/>
<path fill-rule="evenodd" clip-rule="evenodd" d="M60.7735 50.665C60.7735 50.665 63.1847 51.3927 64.5856 52.1017C65.0717 52.3477 65.9127 52.8386 66.5193 53.4832C67.1136 54.1144 67.4033 54.7541 67.4033 54.7541L76.9061 70.7791L61.5469 70.7859L54.3646 57.296C54.3646 57.296 52.8939 54.7686 51.9889 54.0358C51.234 53.4245 50.9121 53.2069 50.1657 53.2069C49.6462 53.2069 46.5164 53.2069 46.5164 53.2069L46.5193 70.7762L32.9282 70.7819V25.9023H60.221C60.221 25.9023 72.6519 26.1266 72.6519 37.9555C72.6519 49.7845 60.7735 50.665 60.7735 50.665ZM54.8619 35.6373L46.6339 35.632L46.6298 43.2632L54.8619 43.2606C54.8619 43.2606 58.674 43.2488 58.674 39.3787C58.674 35.4308 54.8619 35.6373 54.8619 35.6373Z" fill="#999999"/>
</svg>
